<svg width="240.14mm" height="196.384mm" viewBox="0 0 240.14 196.384" xmlns="http://www.w3.org/2000/svg" version="1.1" preserveAspectRatio="xMidYMid meet"><g id="svgGroup" stroke-linecap="round" fill-rule="evenodd" font-size="9pt" stroke="#000" stroke-width="0.25mm" fill="none" style="stroke:#000;stroke-width:0.25mm;fill:none"><path d="M 31.786 196.337 L 31.786 193.884 L 46.26 193.884 L 46.26 196.337 L 46.307 196.384 L 61.008 196.384 L 61.055 196.337 L 61.055 193.884 L 78 193.884 L 78.047 193.837 L 78.047 188.588 L 78 188.541 L 73.717 188.541 L 73.717 174.067 L 78 174.067 L 78.047 174.02 L 78.047 166.271 L 78 166.224 L 4.377 166.224 L 4.33 166.271 L 4.33 173.907 L 0.047 173.907 L 0 173.954 L 0 188.654 L 0.047 188.701 L 4.33 188.701 L 4.33 193.837 L 4.377 193.884 L 16.992 193.884 L 16.992 196.337 L 17.039 196.384 L 31.739 196.384 L 31.786 196.337 Z" id="side1_outsideCutPath" stroke="#FF0000" stroke-width="0.1" style="stroke:#FF0000;stroke-width:0.1" vector-effect="non-scaling-stroke"/><path d="M 32.394 183.421 L 32.394 182.968 A 2.421 2.421 0 0 0 32.891 183.153 A 2.64 2.64 0 0 0 32.893 183.153 A 2.198 2.198 0 0 0 33.242 183.214 A 1.883 1.883 0 0 0 33.407 183.221 Q 33.649 183.221 33.82 183.172 A 0.741 0.741 0 0 0 33.996 183.099 A 0.421 0.421 0 0 0 34.135 182.97 Q 34.189 182.888 34.2 182.778 A 0.561 0.561 0 0 0 34.202 182.726 A 0.39 0.39 0 0 0 34.082 182.444 A 0.559 0.559 0 0 0 34.038 182.404 Q 33.878 182.272 33.416 182.093 A 7.557 7.557 0 0 0 33.401 182.087 A 7.353 7.353 0 0 1 33.192 182.006 Q 32.903 181.888 32.76 181.794 A 1.063 1.063 0 0 1 32.613 181.678 Q 32.53 181.6 32.478 181.511 A 0.615 0.615 0 0 1 32.477 181.51 A 0.668 0.668 0 0 1 32.398 181.287 A 0.905 0.905 0 0 1 32.385 181.13 A 0.776 0.776 0 0 1 32.446 180.817 Q 32.525 180.635 32.706 180.507 A 1.122 1.122 0 0 1 33.046 180.347 Q 33.28 180.279 33.586 180.279 A 2.577 2.577 0 0 1 34.605 180.491 L 34.432 180.888 Q 34.028 180.722 33.687 180.694 A 1.653 1.653 0 0 0 33.551 180.688 Q 33.203 180.688 33.027 180.797 Q 32.85 180.906 32.85 181.098 A 0.423 0.423 0 0 0 32.864 181.207 A 0.335 0.335 0 0 0 32.916 181.318 A 0.45 0.45 0 0 0 32.98 181.388 Q 33.014 181.419 33.057 181.448 A 1.027 1.027 0 0 0 33.13 181.492 A 1.422 1.422 0 0 0 33.217 181.537 Q 33.363 181.605 33.636 181.708 A 14.411 14.411 0 0 0 33.695 181.731 A 4.594 4.594 0 0 1 33.959 181.836 Q 34.216 181.947 34.366 182.06 A 0.836 0.836 0 0 1 34.471 182.152 A 0.726 0.726 0 0 1 34.67 182.611 A 0.964 0.964 0 0 1 34.673 182.685 A 0.963 0.963 0 0 1 34.626 182.993 A 0.777 0.777 0 0 1 34.337 183.38 Q 34.075 183.571 33.648 183.613 A 2.598 2.598 0 0 1 33.395 183.625 A 3.288 3.288 0 0 1 33.021 183.605 Q 32.834 183.583 32.679 183.539 A 1.324 1.324 0 0 1 32.394 183.421 Z M 39.256 183.566 L 39.191 183.133 L 39.165 183.133 Q 38.826 183.625 38.152 183.625 A 1.482 1.482 0 0 1 37.724 183.566 A 1.119 1.119 0 0 1 37.166 183.192 A 1.43 1.43 0 0 1 36.915 182.71 Q 36.814 182.388 36.814 181.961 A 2.901 2.901 0 0 1 36.852 181.478 Q 36.896 181.219 36.99 181.012 A 1.381 1.381 0 0 1 37.168 180.721 A 1.152 1.152 0 0 1 37.989 180.287 A 1.652 1.652 0 0 1 38.152 180.279 A 1.44 1.44 0 0 1 38.584 180.34 A 1.111 1.111 0 0 1 39.159 180.756 L 39.197 180.756 L 39.177 180.523 L 39.165 180.296 L 39.165 178.983 L 39.654 178.983 L 39.654 183.566 L 39.256 183.566 Z M 43.241 181.731 L 43.241 182.04 L 41.017 182.04 Q 41.027 182.428 41.158 182.689 A 0.918 0.918 0 0 0 41.305 182.903 Q 41.577 183.198 42.072 183.198 A 2.582 2.582 0 0 0 43.039 183.006 A 2.959 2.959 0 0 0 43.103 182.98 L 43.103 183.416 A 2.935 2.935 0 0 1 42.835 183.517 A 2.245 2.245 0 0 1 42.612 183.576 A 2.053 2.053 0 0 1 42.409 183.608 Q 42.308 183.618 42.195 183.622 A 3.983 3.983 0 0 1 42.054 183.625 A 1.9 1.9 0 0 1 41.579 183.568 A 1.345 1.345 0 0 1 40.925 183.189 A 1.439 1.439 0 0 1 40.58 182.557 Q 40.521 182.333 40.512 182.066 A 2.792 2.792 0 0 1 40.511 181.978 Q 40.511 181.342 40.766 180.919 A 1.448 1.448 0 0 1 40.895 180.738 A 1.253 1.253 0 0 1 41.808 180.283 A 1.728 1.728 0 0 1 41.927 180.279 A 1.49 1.49 0 0 1 42.347 180.335 A 1.133 1.133 0 0 1 42.888 180.678 A 1.367 1.367 0 0 1 43.197 181.303 A 1.99 1.99 0 0 1 43.241 181.731 Z M 45.662 179.26 L 45.662 183.566 L 45.185 183.566 L 45.185 180.497 A 11.118 11.118 0 0 1 45.196 179.99 A 9.397 9.397 0 0 1 45.209 179.772 A 2.768 2.768 0 0 1 45.143 179.836 A 3.498 3.498 0 0 1 45.07 179.902 A 1.739 1.739 0 0 1 45.042 179.926 Q 44.924 180.026 44.438 180.421 A 273.697 273.697 0 0 1 44.369 180.476 L 44.11 180.14 L 45.25 179.26 L 45.662 179.26 Z M 35.957 180.338 L 35.957 183.566 L 35.468 183.566 L 35.468 180.338 L 35.957 180.338 Z M 39.165 182.064 L 39.165 181.961 Q 39.165 181.378 39 181.078 A 0.733 0.733 0 0 0 38.937 180.981 Q 38.708 180.688 38.208 180.688 A 0.877 0.877 0 0 0 37.914 180.735 A 0.729 0.729 0 0 0 37.549 181.022 A 1.152 1.152 0 0 0 37.401 181.34 Q 37.356 181.489 37.336 181.668 A 2.727 2.727 0 0 0 37.321 181.966 Q 37.321 182.585 37.548 182.9 A 0.737 0.737 0 0 0 38.081 183.208 A 1.095 1.095 0 0 0 38.213 183.215 A 1.452 1.452 0 0 0 38.48 183.193 Q 38.627 183.165 38.741 183.104 A 0.658 0.658 0 0 0 38.939 182.943 A 0.81 0.81 0 0 0 39.072 182.704 Q 39.156 182.477 39.164 182.14 A 3.099 3.099 0 0 0 39.165 182.064 Z M 41.029 181.642 L 42.717 181.642 A 1.666 1.666 0 0 0 42.697 181.375 Q 42.673 181.231 42.623 181.116 A 0.756 0.756 0 0 0 42.511 180.934 A 0.67 0.67 0 0 0 42.107 180.705 A 1.005 1.005 0 0 0 41.922 180.688 A 0.964 0.964 0 0 0 41.643 180.726 A 0.745 0.745 0 0 0 41.302 180.941 Q 41.092 181.171 41.039 181.559 A 1.847 1.847 0 0 0 41.029 181.642 Z M 35.434 179.373 A 0.542 0.542 0 0 0 35.427 179.463 Q 35.427 179.546 35.448 179.608 A 0.252 0.252 0 0 0 35.51 179.709 A 0.274 0.274 0 0 0 35.609 179.772 A 0.311 0.311 0 0 0 35.716 179.79 Q 35.834 179.79 35.919 179.709 Q 36.004 179.628 36.004 179.463 A 0.559 0.559 0 0 0 36.002 179.41 Q 35.997 179.362 35.984 179.322 A 0.247 0.247 0 0 0 35.919 179.218 A 0.288 0.288 0 0 0 35.716 179.139 A 0.373 0.373 0 0 0 35.691 179.14 A 0.283 0.283 0 0 0 35.51 179.217 A 0.229 0.229 0 0 0 35.459 179.289 Q 35.442 179.326 35.434 179.373 Z" id="side1_labelLayer" stroke="#000000" fill="#000000" style="stroke:#000000;fill:#000000" vector-effect="non-scaling-stroke"/><path d="M 112.833 196.337 L 112.833 193.884 L 127.307 193.884 L 127.307 196.337 L 127.354 196.384 L 142.054 196.384 L 142.101 196.337 L 142.101 193.884 L 159.047 193.884 L 159.094 193.837 L 159.094 188.588 L 159.047 188.541 L 154.763 188.541 L 154.763 174.067 L 159.047 174.067 L 159.094 174.02 L 159.094 166.271 L 159.047 166.224 L 85.424 166.224 L 85.377 166.271 L 85.377 173.907 L 81.094 173.907 L 81.047 173.954 L 81.047 188.654 L 81.094 188.701 L 85.377 188.701 L 85.377 193.837 L 85.424 193.884 L 98.039 193.884 L 98.039 196.337 L 98.086 196.384 L 112.786 196.384 L 112.833 196.337 Z" id="side3_outsideCutPath" stroke="#FF0000" stroke-width="0.1" style="stroke:#FF0000;stroke-width:0.1" vector-effect="non-scaling-stroke"/><path d="M 126.185 181.298 L 126.185 181.321 Q 126.703 181.386 126.953 181.651 A 0.9 0.9 0 0 1 127.185 182.124 A 1.272 1.272 0 0 1 127.204 182.346 A 1.414 1.414 0 0 1 127.149 182.75 A 1.051 1.051 0 0 1 126.777 183.293 Q 126.35 183.625 125.563 183.625 A 3.944 3.944 0 0 1 125.207 183.609 A 3.064 3.064 0 0 1 124.937 183.573 A 2.142 2.142 0 0 1 124.385 183.392 L 124.385 182.927 A 2.685 2.685 0 0 0 124.981 183.137 A 2.943 2.943 0 0 0 125.345 183.197 A 2.392 2.392 0 0 0 125.581 183.209 A 2.09 2.09 0 0 0 125.988 183.173 Q 126.628 183.046 126.69 182.466 A 1.222 1.222 0 0 0 126.697 182.335 A 0.655 0.655 0 0 0 126.324 181.709 Q 126.019 181.551 125.466 181.551 L 125.042 181.551 L 125.042 181.13 L 125.472 181.13 A 1.847 1.847 0 0 0 125.793 181.104 Q 125.97 181.072 126.112 181.004 A 0.944 0.944 0 0 0 126.27 180.908 A 0.713 0.713 0 0 0 126.56 180.387 A 0.977 0.977 0 0 0 126.565 180.291 A 0.737 0.737 0 0 0 126.534 180.073 A 0.572 0.572 0 0 0 126.348 179.796 A 0.736 0.736 0 0 0 126.07 179.654 Q 125.932 179.616 125.76 179.616 A 1.86 1.86 0 0 0 125.34 179.662 A 1.679 1.679 0 0 0 125.227 179.693 A 1.663 1.663 0 0 0 125.03 179.768 Q 124.857 179.847 124.656 179.975 L 124.409 179.646 Q 124.674 179.436 125.02 179.317 A 2.221 2.221 0 0 1 125.749 179.198 Q 126.376 179.198 126.724 179.485 A 0.939 0.939 0 0 1 127.066 180.15 A 1.334 1.334 0 0 1 127.071 180.273 A 1.203 1.203 0 0 1 127.034 180.578 A 0.891 0.891 0 0 1 126.84 180.947 A 1.018 1.018 0 0 1 126.488 181.202 A 1.469 1.469 0 0 1 126.185 181.298 Z M 112.945 183.421 L 112.945 182.968 A 2.421 2.421 0 0 0 113.443 183.153 A 2.64 2.64 0 0 0 113.445 183.153 A 2.198 2.198 0 0 0 113.794 183.214 A 1.883 1.883 0 0 0 113.959 183.221 Q 114.201 183.221 114.372 183.172 A 0.741 0.741 0 0 0 114.548 183.099 A 0.421 0.421 0 0 0 114.687 182.97 Q 114.741 182.888 114.751 182.778 A 0.561 0.561 0 0 0 114.754 182.726 A 0.39 0.39 0 0 0 114.634 182.444 A 0.559 0.559 0 0 0 114.59 182.404 Q 114.43 182.272 113.968 182.093 A 7.557 7.557 0 0 0 113.953 182.087 A 7.353 7.353 0 0 1 113.744 182.006 Q 113.455 181.888 113.312 181.794 A 1.063 1.063 0 0 1 113.164 181.678 Q 113.082 181.6 113.03 181.511 A 0.615 0.615 0 0 1 113.029 181.51 A 0.668 0.668 0 0 1 112.95 181.287 A 0.905 0.905 0 0 1 112.937 181.13 A 0.776 0.776 0 0 1 112.998 180.817 Q 113.077 180.635 113.258 180.507 A 1.122 1.122 0 0 1 113.598 180.347 Q 113.832 180.279 114.138 180.279 A 2.577 2.577 0 0 1 115.157 180.491 L 114.984 180.888 Q 114.58 180.722 114.239 180.694 A 1.653 1.653 0 0 0 114.103 180.688 Q 113.755 180.688 113.579 180.797 Q 113.402 180.906 113.402 181.098 A 0.423 0.423 0 0 0 113.416 181.207 A 0.335 0.335 0 0 0 113.468 181.318 A 0.45 0.45 0 0 0 113.532 181.388 Q 113.566 181.419 113.609 181.448 A 1.027 1.027 0 0 0 113.682 181.492 A 1.422 1.422 0 0 0 113.769 181.537 Q 113.915 181.605 114.187 181.708 A 14.411 14.411 0 0 0 114.247 181.731 A 4.594 4.594 0 0 1 114.511 181.836 Q 114.767 181.947 114.918 182.06 A 0.836 0.836 0 0 1 115.023 182.152 A 0.726 0.726 0 0 1 115.222 182.611 A 0.964 0.964 0 0 1 115.225 182.685 A 0.963 0.963 0 0 1 115.178 182.993 A 0.777 0.777 0 0 1 114.889 183.38 Q 114.627 183.571 114.2 183.613 A 2.598 2.598 0 0 1 113.947 183.625 A 3.288 3.288 0 0 1 113.573 183.605 Q 113.386 183.583 113.231 183.539 A 1.324 1.324 0 0 1 112.945 183.421 Z M 119.808 183.566 L 119.743 183.133 L 119.717 183.133 Q 119.378 183.625 118.704 183.625 A 1.482 1.482 0 0 1 118.276 183.566 A 1.119 1.119 0 0 1 117.718 183.192 A 1.43 1.43 0 0 1 117.467 182.71 Q 117.366 182.388 117.366 181.961 A 2.901 2.901 0 0 1 117.404 181.478 Q 117.448 181.219 117.542 181.012 A 1.381 1.381 0 0 1 117.72 180.721 A 1.152 1.152 0 0 1 118.541 180.287 A 1.652 1.652 0 0 1 118.704 180.279 A 1.44 1.44 0 0 1 119.136 180.34 A 1.111 1.111 0 0 1 119.711 180.756 L 119.749 180.756 L 119.728 180.523 L 119.717 180.296 L 119.717 178.983 L 120.206 178.983 L 120.206 183.566 L 119.808 183.566 Z M 123.793 181.731 L 123.793 182.04 L 121.569 182.04 Q 121.579 182.428 121.71 182.689 A 0.918 0.918 0 0 0 121.856 182.903 Q 122.129 183.198 122.624 183.198 A 2.582 2.582 0 0 0 123.591 183.006 A 2.959 2.959 0 0 0 123.655 182.98 L 123.655 183.416 A 2.935 2.935 0 0 1 123.387 183.517 A 2.245 2.245 0 0 1 123.164 183.576 A 2.053 2.053 0 0 1 122.961 183.608 Q 122.86 183.618 122.747 183.622 A 3.983 3.983 0 0 1 122.606 183.625 A 1.9 1.9 0 0 1 122.131 183.568 A 1.345 1.345 0 0 1 121.477 183.189 A 1.439 1.439 0 0 1 121.132 182.557 Q 121.072 182.333 121.064 182.066 A 2.792 2.792 0 0 1 121.063 181.978 Q 121.063 181.342 121.318 180.919 A 1.448 1.448 0 0 1 121.447 180.738 A 1.253 1.253 0 0 1 122.36 180.283 A 1.728 1.728 0 0 1 122.479 180.279 A 1.49 1.49 0 0 1 122.899 180.335 A 1.133 1.133 0 0 1 123.44 180.678 A 1.367 1.367 0 0 1 123.749 181.303 A 1.99 1.99 0 0 1 123.793 181.731 Z M 116.509 180.338 L 116.509 183.566 L 116.02 183.566 L 116.02 180.338 L 116.509 180.338 Z M 119.717 182.064 L 119.717 181.961 Q 119.717 181.378 119.552 181.078 A 0.733 0.733 0 0 0 119.488 180.981 Q 119.26 180.688 118.759 180.688 A 0.877 0.877 0 0 0 118.466 180.735 A 0.729 0.729 0 0 0 118.101 181.022 A 1.152 1.152 0 0 0 117.953 181.34 Q 117.908 181.489 117.888 181.668 A 2.727 2.727 0 0 0 117.873 181.966 Q 117.873 182.585 118.1 182.9 A 0.737 0.737 0 0 0 118.633 183.208 A 1.095 1.095 0 0 0 118.765 183.215 A 1.452 1.452 0 0 0 119.032 183.193 Q 119.179 183.165 119.293 183.104 A 0.658 0.658 0 0 0 119.491 182.943 A 0.81 0.81 0 0 0 119.624 182.704 Q 119.707 182.477 119.716 182.14 A 3.099 3.099 0 0 0 119.717 182.064 Z M 121.581 181.642 L 123.269 181.642 A 1.666 1.666 0 0 0 123.249 181.375 Q 123.225 181.231 123.174 181.116 A 0.756 0.756 0 0 0 123.063 180.934 A 0.67 0.67 0 0 0 122.659 180.705 A 1.005 1.005 0 0 0 122.474 180.688 A 0.964 0.964 0 0 0 122.195 180.726 A 0.745 0.745 0 0 0 121.854 180.941 Q 121.644 181.171 121.591 181.559 A 1.847 1.847 0 0 0 121.581 181.642 Z M 115.986 179.373 A 0.542 0.542 0 0 0 115.979 179.463 Q 115.979 179.546 116 179.608 A 0.252 0.252 0 0 0 116.062 179.709 A 0.274 0.274 0 0 0 116.161 179.772 A 0.311 0.311 0 0 0 116.268 179.79 Q 116.386 179.79 116.471 179.709 Q 116.556 179.628 116.556 179.463 A 0.559 0.559 0 0 0 116.554 179.41 Q 116.549 179.362 116.536 179.322 A 0.247 0.247 0 0 0 116.471 179.218 A 0.288 0.288 0 0 0 116.268 179.139 A 0.373 0.373 0 0 0 116.243 179.14 A 0.283 0.283 0 0 0 116.062 179.217 A 0.229 0.229 0 0 0 116.011 179.289 Q 115.994 179.326 115.986 179.373 Z" id="side3_labelLayer" stroke="#000000" fill="#000000" style="stroke:#000000;fill:#000000" vector-effect="non-scaling-stroke"/><path d="M 193.88 196.337 L 193.88 193.884 L 208.354 193.884 L 208.354 196.337 L 208.401 196.384 L 223.101 196.384 L 223.148 196.337 L 223.148 193.884 L 240.093 193.884 L 240.14 193.837 L 240.14 188.588 L 240.093 188.541 L 235.81 188.541 L 235.81 174.067 L 240.093 174.067 L 240.14 174.02 L 240.14 166.271 L 240.093 166.224 L 166.47 166.224 L 166.424 166.271 L 166.424 173.907 L 162.14 173.907 L 162.094 173.954 L 162.094 188.654 L 162.14 188.701 L 166.424 188.701 L 166.424 193.837 L 166.47 193.884 L 179.086 193.884 L 179.086 196.337 L 179.133 196.384 L 193.833 196.384 L 193.88 196.337 Z" id="side5_outsideCutPath" stroke="#FF0000" stroke-width="0.1" style="stroke:#FF0000;stroke-width:0.1" vector-effect="non-scaling-stroke"/><path d="M 205.544 183.392 L 205.544 182.921 A 1.388 1.388 0 0 0 205.767 183.036 Q 205.898 183.09 206.056 183.128 A 2.543 2.543 0 0 0 206.62 183.203 A 2.364 2.364 0 0 0 206.66 183.203 Q 207.178 183.203 207.466 182.959 A 0.79 0.79 0 0 0 207.726 182.514 A 1.212 1.212 0 0 0 207.753 182.252 Q 207.753 181.427 206.828 181.357 A 2.381 2.381 0 0 0 206.648 181.351 A 2.477 2.477 0 0 0 206.455 181.359 Q 206.255 181.375 205.989 181.421 A 8.484 8.484 0 0 0 205.9 181.436 L 205.647 181.274 L 205.809 179.26 L 207.95 179.26 L 207.95 179.71 L 206.227 179.71 L 206.118 181.003 Q 206.457 180.936 206.792 180.936 Q 207.326 180.936 207.682 181.143 A 1.213 1.213 0 0 1 207.863 181.273 A 1.106 1.106 0 0 1 208.241 181.998 A 1.581 1.581 0 0 1 208.253 182.196 A 1.692 1.692 0 0 1 208.198 182.639 A 1.221 1.221 0 0 1 207.828 183.245 A 1.419 1.419 0 0 1 207.249 183.551 Q 207.033 183.611 206.775 183.622 A 2.794 2.794 0 0 1 206.654 183.625 Q 205.927 183.625 205.544 183.392 Z M 193.989 183.421 L 193.989 182.968 A 2.421 2.421 0 0 0 194.486 183.153 A 2.64 2.64 0 0 0 194.488 183.153 A 2.198 2.198 0 0 0 194.838 183.214 A 1.883 1.883 0 0 0 195.002 183.221 Q 195.245 183.221 195.416 183.172 A 0.741 0.741 0 0 0 195.591 183.099 A 0.421 0.421 0 0 0 195.731 182.97 Q 195.785 182.888 195.795 182.778 A 0.561 0.561 0 0 0 195.798 182.726 A 0.39 0.39 0 0 0 195.678 182.444 A 0.559 0.559 0 0 0 195.634 182.404 Q 195.473 182.272 195.012 182.093 A 7.557 7.557 0 0 0 194.997 182.087 A 7.353 7.353 0 0 1 194.787 182.006 Q 194.498 181.888 194.356 181.794 A 1.063 1.063 0 0 1 194.208 181.678 Q 194.126 181.6 194.074 181.511 A 0.615 0.615 0 0 1 194.073 181.51 A 0.668 0.668 0 0 1 193.993 181.287 A 0.905 0.905 0 0 1 193.98 181.13 A 0.776 0.776 0 0 1 194.042 180.817 Q 194.121 180.635 194.301 180.507 A 1.122 1.122 0 0 1 194.641 180.347 Q 194.876 180.279 195.182 180.279 A 2.577 2.577 0 0 1 196.201 180.491 L 196.027 180.888 Q 195.624 180.722 195.283 180.694 A 1.653 1.653 0 0 0 195.147 180.688 Q 194.799 180.688 194.622 180.797 Q 194.446 180.906 194.446 181.098 A 0.423 0.423 0 0 0 194.459 181.207 A 0.335 0.335 0 0 0 194.512 181.318 A 0.45 0.45 0 0 0 194.576 181.388 Q 194.61 181.419 194.653 181.448 A 1.027 1.027 0 0 0 194.726 181.492 A 1.422 1.422 0 0 0 194.813 181.537 Q 194.959 181.605 195.231 181.708 A 14.411 14.411 0 0 0 195.291 181.731 A 4.594 4.594 0 0 1 195.555 181.836 Q 195.811 181.947 195.962 182.06 A 0.836 0.836 0 0 1 196.067 182.152 A 0.726 0.726 0 0 1 196.266 182.611 A 0.964 0.964 0 0 1 196.269 182.685 A 0.963 0.963 0 0 1 196.222 182.993 A 0.777 0.777 0 0 1 195.933 183.38 Q 195.671 183.571 195.244 183.613 A 2.598 2.598 0 0 1 194.991 183.625 A 3.288 3.288 0 0 1 194.617 183.605 Q 194.43 183.583 194.275 183.539 A 1.324 1.324 0 0 1 193.989 183.421 Z M 200.852 183.566 L 200.787 183.133 L 200.76 183.133 Q 200.422 183.625 199.747 183.625 A 1.482 1.482 0 0 1 199.32 183.566 A 1.119 1.119 0 0 1 198.762 183.192 A 1.43 1.43 0 0 1 198.511 182.71 Q 198.41 182.388 198.41 181.961 A 2.901 2.901 0 0 1 198.448 181.478 Q 198.491 181.219 198.586 181.012 A 1.381 1.381 0 0 1 198.764 180.721 A 1.152 1.152 0 0 1 199.585 180.287 A 1.652 1.652 0 0 1 199.747 180.279 A 1.44 1.44 0 0 1 200.18 180.34 A 1.111 1.111 0 0 1 200.755 180.756 L 200.793 180.756 L 200.772 180.523 L 200.76 180.296 L 200.76 178.983 L 201.249 178.983 L 201.249 183.566 L 200.852 183.566 Z M 204.837 181.731 L 204.837 182.04 L 202.613 182.04 Q 202.623 182.428 202.753 182.689 A 0.918 0.918 0 0 0 202.9 182.903 Q 203.173 183.198 203.668 183.198 A 2.582 2.582 0 0 0 204.635 183.006 A 2.959 2.959 0 0 0 204.698 182.98 L 204.698 183.416 A 2.935 2.935 0 0 1 204.431 183.517 A 2.245 2.245 0 0 1 204.208 183.576 A 2.053 2.053 0 0 1 204.004 183.608 Q 203.904 183.618 203.791 183.622 A 3.983 3.983 0 0 1 203.65 183.625 A 1.9 1.9 0 0 1 203.174 183.568 A 1.345 1.345 0 0 1 202.52 183.189 A 1.439 1.439 0 0 1 202.176 182.557 Q 202.116 182.333 202.108 182.066 A 2.792 2.792 0 0 1 202.107 181.978 Q 202.107 181.342 202.362 180.919 A 1.448 1.448 0 0 1 202.491 180.738 A 1.253 1.253 0 0 1 203.404 180.283 A 1.728 1.728 0 0 1 203.523 180.279 A 1.49 1.49 0 0 1 203.943 180.335 A 1.133 1.133 0 0 1 204.483 180.678 A 1.367 1.367 0 0 1 204.793 181.303 A 1.99 1.99 0 0 1 204.837 181.731 Z M 197.553 180.338 L 197.553 183.566 L 197.064 183.566 L 197.064 180.338 L 197.553 180.338 Z M 200.76 182.064 L 200.76 181.961 Q 200.76 181.378 200.596 181.078 A 0.733 0.733 0 0 0 200.532 180.981 Q 200.304 180.688 199.803 180.688 A 0.877 0.877 0 0 0 199.509 180.735 A 0.729 0.729 0 0 0 199.145 181.022 A 1.152 1.152 0 0 0 198.997 181.34 Q 198.952 181.489 198.932 181.668 A 2.727 2.727 0 0 0 198.917 181.966 Q 198.917 182.585 199.144 182.9 A 0.737 0.737 0 0 0 199.677 183.208 A 1.095 1.095 0 0 0 199.809 183.215 A 1.452 1.452 0 0 0 200.076 183.193 Q 200.223 183.165 200.337 183.104 A 0.658 0.658 0 0 0 200.535 182.943 A 0.81 0.81 0 0 0 200.668 182.704 Q 200.751 182.477 200.76 182.14 A 3.099 3.099 0 0 0 200.76 182.064 Z M 202.625 181.642 L 204.313 181.642 A 1.666 1.666 0 0 0 204.292 181.375 Q 204.269 181.231 204.218 181.116 A 0.756 0.756 0 0 0 204.106 180.934 A 0.67 0.67 0 0 0 203.703 180.705 A 1.005 1.005 0 0 0 203.517 180.688 A 0.964 0.964 0 0 0 203.239 180.726 A 0.745 0.745 0 0 0 202.897 180.941 Q 202.688 181.171 202.634 181.559 A 1.847 1.847 0 0 0 202.625 181.642 Z M 197.03 179.373 A 0.542 0.542 0 0 0 197.023 179.463 Q 197.023 179.546 197.044 179.608 A 0.252 0.252 0 0 0 197.105 179.709 A 0.274 0.274 0 0 0 197.205 179.772 A 0.311 0.311 0 0 0 197.312 179.79 Q 197.429 179.79 197.515 179.709 Q 197.6 179.628 197.6 179.463 A 0.559 0.559 0 0 0 197.598 179.41 Q 197.593 179.362 197.58 179.322 A 0.247 0.247 0 0 0 197.515 179.218 A 0.288 0.288 0 0 0 197.312 179.139 A 0.373 0.373 0 0 0 197.287 179.14 A 0.283 0.283 0 0 0 197.105 179.217 A 0.229 0.229 0 0 0 197.055 179.289 Q 197.038 179.326 197.03 179.373 Z" id="side5_labelLayer" stroke="#000000" fill="#000000" style="stroke:#000000;fill:#000000" vector-effect="non-scaling-stroke"/><path d="M 31.786 163.177 L 31.786 160.724 L 46.26 160.724 L 46.26 163.177 L 46.307 163.224 L 61.008 163.224 L 61.055 163.177 L 61.055 160.724 L 78 160.724 L 78.047 160.677 L 78.047 155.428 L 78 155.381 L 73.717 155.381 L 73.717 140.907 L 78 140.907 L 78.047 140.86 L 78.047 133.111 L 78 133.064 L 4.377 133.064 L 4.33 133.111 L 4.33 140.747 L 0.047 140.747 L 0 140.794 L 0 155.494 L 0.047 155.541 L 4.33 155.541 L 4.33 160.677 L 4.377 160.724 L 16.992 160.724 L 16.992 163.177 L 17.039 163.224 L 31.739 163.224 L 31.786 163.177 Z" id="side0_outsideCutPath" stroke="#FF0000" stroke-width="0.1" style="stroke:#FF0000;stroke-width:0.1" vector-effect="non-scaling-stroke"/><path d="M 31.872 150.261 L 31.872 149.808 A 2.421 2.421 0 0 0 32.369 149.993 A 2.64 2.64 0 0 0 32.371 149.993 A 2.198 2.198 0 0 0 32.721 150.054 A 1.883 1.883 0 0 0 32.885 150.061 Q 33.128 150.061 33.299 150.012 A 0.741 0.741 0 0 0 33.474 149.939 A 0.421 0.421 0 0 0 33.614 149.81 Q 33.668 149.728 33.678 149.618 A 0.561 0.561 0 0 0 33.681 149.566 A 0.39 0.39 0 0 0 33.561 149.284 A 0.559 0.559 0 0 0 33.517 149.244 Q 33.356 149.112 32.895 148.933 A 7.557 7.557 0 0 0 32.879 148.927 A 7.353 7.353 0 0 1 32.67 148.846 Q 32.381 148.728 32.239 148.634 A 1.063 1.063 0 0 1 32.091 148.518 Q 32.009 148.44 31.957 148.351 A 0.615 0.615 0 0 1 31.956 148.35 A 0.668 0.668 0 0 1 31.876 148.127 A 0.905 0.905 0 0 1 31.863 147.97 A 0.776 0.776 0 0 1 31.925 147.656 Q 32.004 147.475 32.184 147.347 A 1.122 1.122 0 0 1 32.524 147.187 Q 32.759 147.119 33.065 147.119 A 2.577 2.577 0 0 1 34.084 147.331 L 33.91 147.728 Q 33.507 147.562 33.166 147.534 A 1.653 1.653 0 0 0 33.03 147.528 Q 32.682 147.528 32.505 147.637 Q 32.329 147.746 32.329 147.938 A 0.423 0.423 0 0 0 32.342 148.047 A 0.335 0.335 0 0 0 32.395 148.158 A 0.45 0.45 0 0 0 32.459 148.228 Q 32.493 148.259 32.536 148.288 A 1.027 1.027 0 0 0 32.608 148.332 A 1.422 1.422 0 0 0 32.696 148.377 Q 32.841 148.445 33.114 148.548 A 14.411 14.411 0 0 0 33.174 148.571 A 4.594 4.594 0 0 1 33.438 148.676 Q 33.694 148.787 33.845 148.9 A 0.836 0.836 0 0 1 33.95 148.992 A 0.726 0.726 0 0 1 34.149 149.451 A 0.964 0.964 0 0 1 34.152 149.525 A 0.963 0.963 0 0 1 34.105 149.833 A 0.777 0.777 0 0 1 33.816 150.22 Q 33.554 150.411 33.127 150.453 A 2.598 2.598 0 0 1 32.874 150.465 A 3.288 3.288 0 0 1 32.5 150.445 Q 32.313 150.423 32.158 150.379 A 1.324 1.324 0 0 1 31.872 150.261 Z M 38.735 150.406 L 38.67 149.973 L 38.643 149.973 Q 38.305 150.465 37.63 150.465 A 1.482 1.482 0 0 1 37.203 150.406 A 1.119 1.119 0 0 1 36.645 150.032 A 1.43 1.43 0 0 1 36.394 149.55 Q 36.293 149.228 36.293 148.801 A 2.901 2.901 0 0 1 36.331 148.318 Q 36.374 148.059 36.469 147.852 A 1.381 1.381 0 0 1 36.647 147.561 A 1.152 1.152 0 0 1 37.468 147.127 A 1.652 1.652 0 0 1 37.63 147.119 A 1.44 1.44 0 0 1 38.063 147.18 A 1.111 1.111 0 0 1 38.638 147.596 L 38.676 147.596 L 38.655 147.363 L 38.643 147.136 L 38.643 145.823 L 39.132 145.823 L 39.132 150.406 L 38.735 150.406 Z M 42.72 148.571 L 42.72 148.88 L 40.496 148.88 Q 40.506 149.268 40.636 149.529 A 0.918 0.918 0 0 0 40.783 149.743 Q 41.056 150.038 41.55 150.038 A 2.582 2.582 0 0 0 42.518 149.846 A 2.959 2.959 0 0 0 42.581 149.82 L 42.581 150.256 A 2.935 2.935 0 0 1 42.314 150.357 A 2.245 2.245 0 0 1 42.091 150.416 A 2.053 2.053 0 0 1 41.887 150.448 Q 41.787 150.458 41.674 150.462 A 3.983 3.983 0 0 1 41.533 150.465 A 1.9 1.9 0 0 1 41.057 150.408 A 1.345 1.345 0 0 1 40.403 150.029 A 1.439 1.439 0 0 1 40.059 149.397 Q 39.999 149.173 39.991 148.906 A 2.792 2.792 0 0 1 39.989 148.818 Q 39.989 148.182 40.245 147.759 A 1.448 1.448 0 0 1 40.374 147.578 A 1.253 1.253 0 0 1 41.287 147.123 A 1.728 1.728 0 0 1 41.406 147.119 A 1.49 1.49 0 0 1 41.826 147.175 A 1.133 1.133 0 0 1 42.366 147.518 A 1.367 1.367 0 0 1 42.676 148.143 A 1.99 1.99 0 0 1 42.72 148.571 Z M 46.183 148.247 Q 46.183 149.363 45.831 149.914 A 1.14 1.14 0 0 1 45.003 150.447 A 1.668 1.668 0 0 1 44.755 150.465 A 1.356 1.356 0 0 1 44.28 150.385 Q 43.941 150.259 43.72 149.934 A 1.507 1.507 0 0 1 43.698 149.901 Q 43.335 149.337 43.335 148.247 A 5.778 5.778 0 0 1 43.363 147.66 Q 43.434 146.968 43.686 146.577 A 1.135 1.135 0 0 1 44.514 146.049 A 1.665 1.665 0 0 1 44.755 146.032 Q 45.435 146.032 45.798 146.568 A 1.514 1.514 0 0 1 45.82 146.6 A 1.964 1.964 0 0 1 46.041 147.098 Q 46.115 147.343 46.15 147.641 A 5.134 5.134 0 0 1 46.183 148.247 Z M 43.83 148.247 Q 43.83 149.186 44.051 149.615 A 0.843 0.843 0 0 0 44.241 149.865 Q 44.412 150.016 44.66 150.039 A 1.006 1.006 0 0 0 44.755 150.043 Q 45.244 150.043 45.463 149.609 A 1.575 1.575 0 0 0 45.578 149.294 Q 45.683 148.888 45.683 148.247 A 6.251 6.251 0 0 0 45.666 147.777 Q 45.632 147.328 45.528 147.038 A 1.323 1.323 0 0 0 45.463 146.888 A 0.836 0.836 0 0 0 45.271 146.633 Q 45.068 146.456 44.755 146.456 A 0.854 0.854 0 0 0 44.448 146.509 Q 44.23 146.592 44.094 146.808 A 0.999 0.999 0 0 0 44.051 146.882 A 1.483 1.483 0 0 0 43.939 147.18 Q 43.856 147.491 43.836 147.951 A 6.96 6.96 0 0 0 43.83 148.247 Z M 35.436 147.178 L 35.436 150.406 L 34.947 150.406 L 34.947 147.178 L 35.436 147.178 Z M 38.643 148.904 L 38.643 148.801 Q 38.643 148.218 38.479 147.918 A 0.733 0.733 0 0 0 38.415 147.821 Q 38.187 147.528 37.686 147.528 A 0.877 0.877 0 0 0 37.392 147.575 A 0.729 0.729 0 0 0 37.028 147.862 A 1.152 1.152 0 0 0 36.88 148.18 Q 36.835 148.329 36.815 148.508 A 2.727 2.727 0 0 0 36.8 148.806 Q 36.8 149.425 37.026 149.74 A 0.737 0.737 0 0 0 37.56 150.048 A 1.095 1.095 0 0 0 37.692 150.055 A 1.452 1.452 0 0 0 37.959 150.032 Q 38.106 150.005 38.22 149.944 A 0.658 0.658 0 0 0 38.418 149.783 A 0.81 0.81 0 0 0 38.551 149.544 Q 38.634 149.317 38.643 148.98 A 3.099 3.099 0 0 0 38.643 148.904 Z M 40.508 148.482 L 42.195 148.482 A 1.666 1.666 0 0 0 42.175 148.215 Q 42.152 148.071 42.101 147.956 A 0.756 0.756 0 0 0 41.989 147.774 A 0.67 0.67 0 0 0 41.586 147.545 A 1.005 1.005 0 0 0 41.4 147.528 A 0.964 0.964 0 0 0 41.122 147.566 A 0.745 0.745 0 0 0 40.78 147.781 Q 40.571 148.011 40.517 148.399 A 1.847 1.847 0 0 0 40.508 148.482 Z M 34.913 146.213 A 0.542 0.542 0 0 0 34.906 146.303 Q 34.906 146.386 34.927 146.448 A 0.252 0.252 0 0 0 34.988 146.549 A 0.274 0.274 0 0 0 35.088 146.612 A 0.311 0.311 0 0 0 35.194 146.63 Q 35.312 146.63 35.398 146.549 Q 35.483 146.468 35.483 146.303 A 0.559 0.559 0 0 0 35.481 146.25 Q 35.476 146.202 35.463 146.162 A 0.247 0.247 0 0 0 35.398 146.058 A 0.288 0.288 0 0 0 35.194 145.979 A 0.373 0.373 0 0 0 35.17 145.98 A 0.283 0.283 0 0 0 34.988 146.057 A 0.229 0.229 0 0 0 34.938 146.129 Q 34.921 146.166 34.913 146.213 Z" id="side0_labelLayer" stroke="#000000" fill="#000000" style="stroke:#000000;fill:#000000" vector-effect="non-scaling-stroke"/><path d="M 112.833 163.177 L 112.833 160.724 L 127.307 160.724 L 127.307 163.177 L 127.354 163.224 L 142.054 163.224 L 142.101 163.177 L 142.101 160.724 L 159.047 160.724 L 159.094 160.677 L 159.094 155.428 L 159.047 155.381 L 154.763 155.381 L 154.763 140.907 L 159.047 140.907 L 159.094 140.86 L 159.094 133.111 L 159.047 133.064 L 85.424 133.064 L 85.377 133.111 L 85.377 140.747 L 81.094 140.747 L 81.047 140.794 L 81.047 155.494 L 81.094 155.541 L 85.377 155.541 L 85.377 160.677 L 85.424 160.724 L 98.039 160.724 L 98.039 163.177 L 98.086 163.224 L 112.786 163.224 L 112.833 163.177 Z" id="side2_outsideCutPath" stroke="#FF0000" stroke-width="0.1" style="stroke:#FF0000;stroke-width:0.1" vector-effect="non-scaling-stroke"/><path d="M 127.218 149.952 L 127.218 150.406 L 124.388 150.406 L 124.388 149.985 L 125.522 148.845 A 21.532 21.532 0 0 0 125.746 148.616 Q 126.079 148.268 126.205 148.097 A 2.23 2.23 0 0 0 126.348 147.879 A 1.646 1.646 0 0 0 126.453 147.661 A 1.232 1.232 0 0 0 126.534 147.257 A 1.419 1.419 0 0 0 126.535 147.204 A 0.916 0.916 0 0 0 126.506 146.968 A 0.657 0.657 0 0 0 126.326 146.658 A 0.69 0.69 0 0 0 126.013 146.488 Q 125.907 146.46 125.782 146.457 A 1.322 1.322 0 0 0 125.746 146.456 A 1.459 1.459 0 0 0 125.238 146.544 A 1.403 1.403 0 0 0 125.05 146.631 Q 124.887 146.72 124.703 146.866 L 124.444 146.533 A 2.222 2.222 0 0 1 125.025 146.178 A 1.876 1.876 0 0 1 125.74 146.038 A 1.908 1.908 0 0 1 126.126 146.074 Q 126.465 146.145 126.691 146.349 A 1.025 1.025 0 0 1 127.026 147.01 A 1.442 1.442 0 0 1 127.036 147.184 A 1.537 1.537 0 0 1 126.907 147.793 A 1.928 1.928 0 0 1 126.806 147.994 A 2.51 2.51 0 0 1 126.634 148.25 Q 126.435 148.516 126.104 148.851 A 11.014 11.014 0 0 1 125.946 149.007 L 125.004 149.929 L 125.004 149.952 L 127.218 149.952 Z M 112.931 150.261 L 112.931 149.808 A 2.421 2.421 0 0 0 113.428 149.993 A 2.64 2.64 0 0 0 113.43 149.993 A 2.198 2.198 0 0 0 113.779 150.054 A 1.883 1.883 0 0 0 113.944 150.061 Q 114.186 150.061 114.358 150.012 A 0.741 0.741 0 0 0 114.533 149.939 A 0.421 0.421 0 0 0 114.672 149.81 Q 114.727 149.728 114.737 149.618 A 0.561 0.561 0 0 0 114.739 149.566 A 0.39 0.39 0 0 0 114.62 149.284 A 0.559 0.559 0 0 0 114.576 149.244 Q 114.415 149.112 113.954 148.933 A 7.557 7.557 0 0 0 113.938 148.927 A 7.353 7.353 0 0 1 113.729 148.846 Q 113.44 148.728 113.297 148.634 A 1.063 1.063 0 0 1 113.15 148.518 Q 113.068 148.44 113.015 148.351 A 0.615 0.615 0 0 1 113.015 148.35 A 0.668 0.668 0 0 1 112.935 148.127 A 0.905 0.905 0 0 1 112.922 147.97 A 0.776 0.776 0 0 1 112.983 147.657 Q 113.062 147.475 113.243 147.347 A 1.122 1.122 0 0 1 113.583 147.187 Q 113.818 147.119 114.124 147.119 A 2.577 2.577 0 0 1 115.143 147.331 L 114.969 147.728 Q 114.565 147.562 114.224 147.534 A 1.653 1.653 0 0 0 114.088 147.528 Q 113.741 147.528 113.564 147.637 Q 113.387 147.746 113.387 147.938 A 0.423 0.423 0 0 0 113.401 148.047 A 0.335 0.335 0 0 0 113.454 148.158 A 0.45 0.45 0 0 0 113.518 148.228 Q 113.551 148.259 113.594 148.288 A 1.027 1.027 0 0 0 113.667 148.332 A 1.422 1.422 0 0 0 113.754 148.377 Q 113.9 148.445 114.173 148.548 A 14.411 14.411 0 0 0 114.233 148.571 A 4.594 4.594 0 0 1 114.496 148.676 Q 114.753 148.787 114.903 148.9 A 0.836 0.836 0 0 1 115.009 148.992 A 0.726 0.726 0 0 1 115.208 149.451 A 0.964 0.964 0 0 1 115.21 149.525 A 0.963 0.963 0 0 1 115.163 149.833 A 0.777 0.777 0 0 1 114.875 150.22 Q 114.613 150.411 114.186 150.453 A 2.598 2.598 0 0 1 113.932 150.465 A 3.288 3.288 0 0 1 113.558 150.445 Q 113.371 150.423 113.216 150.379 A 1.324 1.324 0 0 1 112.931 150.261 Z M 119.793 150.406 L 119.729 149.973 L 119.702 149.973 Q 119.363 150.465 118.689 150.465 A 1.482 1.482 0 0 1 118.262 150.406 A 1.119 1.119 0 0 1 117.704 150.032 A 1.43 1.43 0 0 1 117.452 149.55 Q 117.352 149.228 117.352 148.801 A 2.901 2.901 0 0 1 117.389 148.318 Q 117.433 148.059 117.527 147.852 A 1.381 1.381 0 0 1 117.705 147.561 A 1.152 1.152 0 0 1 118.526 147.127 A 1.652 1.652 0 0 1 118.689 147.119 A 1.44 1.44 0 0 1 119.121 147.18 A 1.111 1.111 0 0 1 119.696 147.596 L 119.734 147.596 L 119.714 147.363 L 119.702 147.136 L 119.702 145.823 L 120.191 145.823 L 120.191 150.406 L 119.793 150.406 Z M 123.778 148.571 L 123.778 148.88 L 121.555 148.88 Q 121.565 149.268 121.695 149.529 A 0.918 0.918 0 0 0 121.842 149.743 Q 122.114 150.038 122.609 150.038 A 2.582 2.582 0 0 0 123.576 149.846 A 2.959 2.959 0 0 0 123.64 149.82 L 123.64 150.256 A 2.935 2.935 0 0 1 123.372 150.357 A 2.245 2.245 0 0 1 123.149 150.416 A 2.053 2.053 0 0 1 122.946 150.448 Q 122.846 150.458 122.732 150.462 A 3.983 3.983 0 0 1 122.591 150.465 A 1.9 1.9 0 0 1 122.116 150.408 A 1.345 1.345 0 0 1 121.462 150.029 A 1.439 1.439 0 0 1 121.118 149.397 Q 121.058 149.173 121.049 148.906 A 2.792 2.792 0 0 1 121.048 148.818 Q 121.048 148.182 121.303 147.759 A 1.448 1.448 0 0 1 121.432 147.578 A 1.253 1.253 0 0 1 122.346 147.123 A 1.728 1.728 0 0 1 122.465 147.119 A 1.49 1.49 0 0 1 122.884 147.175 A 1.133 1.133 0 0 1 123.425 147.518 A 1.367 1.367 0 0 1 123.735 148.143 A 1.99 1.99 0 0 1 123.778 148.571 Z M 116.495 147.178 L 116.495 150.406 L 116.006 150.406 L 116.006 147.178 L 116.495 147.178 Z M 119.702 148.904 L 119.702 148.801 Q 119.702 148.218 119.537 147.918 A 0.733 0.733 0 0 0 119.474 147.821 Q 119.245 147.528 118.745 147.528 A 0.877 0.877 0 0 0 118.451 147.575 A 0.729 0.729 0 0 0 118.086 147.862 A 1.152 1.152 0 0 0 117.939 148.18 Q 117.893 148.329 117.874 148.508 A 2.727 2.727 0 0 0 117.858 148.806 Q 117.858 149.425 118.085 149.74 A 0.737 0.737 0 0 0 118.619 150.048 A 1.095 1.095 0 0 0 118.751 150.055 A 1.452 1.452 0 0 0 119.017 150.033 Q 119.164 150.005 119.278 149.944 A 0.658 0.658 0 0 0 119.477 149.783 A 0.81 0.81 0 0 0 119.61 149.544 Q 119.693 149.317 119.701 148.98 A 3.099 3.099 0 0 0 119.702 148.904 Z M 121.566 148.482 L 123.254 148.482 A 1.666 1.666 0 0 0 123.234 148.215 Q 123.21 148.071 123.16 147.956 A 0.756 0.756 0 0 0 123.048 147.774 A 0.67 0.67 0 0 0 122.644 147.545 A 1.005 1.005 0 0 0 122.459 147.528 A 0.964 0.964 0 0 0 122.18 147.566 A 0.745 0.745 0 0 0 121.839 147.781 Q 121.63 148.011 121.576 148.399 A 1.847 1.847 0 0 0 121.566 148.482 Z M 115.971 146.213 A 0.542 0.542 0 0 0 115.964 146.303 Q 115.964 146.386 115.985 146.448 A 0.252 0.252 0 0 0 116.047 146.549 A 0.274 0.274 0 0 0 116.146 146.612 A 0.311 0.311 0 0 0 116.253 146.63 Q 116.371 146.63 116.456 146.549 Q 116.542 146.468 116.542 146.303 A 0.559 0.559 0 0 0 116.539 146.25 Q 116.535 146.202 116.521 146.162 A 0.247 0.247 0 0 0 116.456 146.058 A 0.288 0.288 0 0 0 116.253 145.979 A 0.373 0.373 0 0 0 116.228 145.98 A 0.283 0.283 0 0 0 116.047 146.057 A 0.229 0.229 0 0 0 115.996 146.129 Q 115.979 146.166 115.971 146.213 Z" id="side2_labelLayer" stroke="#000000" fill="#000000" style="stroke:#000000;fill:#000000" vector-effect="non-scaling-stroke"/><path d="M 193.88 163.177 L 193.88 160.724 L 208.354 160.724 L 208.354 163.177 L 208.401 163.224 L 223.101 163.224 L 223.148 163.177 L 223.148 160.724 L 240.093 160.724 L 240.14 160.677 L 240.14 155.428 L 240.093 155.381 L 235.81 155.381 L 235.81 140.907 L 240.093 140.907 L 240.14 140.86 L 240.14 133.111 L 240.093 133.064 L 166.47 133.064 L 166.424 133.111 L 166.424 140.747 L 162.14 140.747 L 162.094 140.794 L 162.094 155.494 L 162.14 155.541 L 166.424 155.541 L 166.424 160.677 L 166.47 160.724 L 179.086 160.724 L 179.086 163.177 L 179.133 163.224 L 193.833 163.224 L 193.88 163.177 Z" id="side4_outsideCutPath" stroke="#FF0000" stroke-width="0.1" style="stroke:#FF0000;stroke-width:0.1" vector-effect="non-scaling-stroke"/><path d="M 193.876 150.261 L 193.876 149.808 A 2.421 2.421 0 0 0 194.373 149.993 A 2.64 2.64 0 0 0 194.375 149.993 A 2.198 2.198 0 0 0 194.725 150.054 A 1.883 1.883 0 0 0 194.889 150.061 Q 195.131 150.061 195.303 150.012 A 0.741 0.741 0 0 0 195.478 149.939 A 0.421 0.421 0 0 0 195.617 149.81 Q 195.672 149.728 195.682 149.618 A 0.561 0.561 0 0 0 195.684 149.566 A 0.39 0.39 0 0 0 195.565 149.284 A 0.559 0.559 0 0 0 195.521 149.244 Q 195.36 149.112 194.899 148.933 A 7.557 7.557 0 0 0 194.883 148.927 A 7.353 7.353 0 0 1 194.674 148.846 Q 194.385 148.728 194.243 148.634 A 1.063 1.063 0 0 1 194.095 148.518 Q 194.013 148.44 193.961 148.351 A 0.615 0.615 0 0 1 193.96 148.35 A 0.668 0.668 0 0 1 193.88 148.127 A 0.905 0.905 0 0 1 193.867 147.97 A 0.776 0.776 0 0 1 193.928 147.657 Q 194.007 147.475 194.188 147.347 A 1.122 1.122 0 0 1 194.528 147.187 Q 194.763 147.119 195.069 147.119 A 2.577 2.577 0 0 1 196.088 147.331 L 195.914 147.728 Q 195.51 147.562 195.17 147.534 A 1.653 1.653 0 0 0 195.033 147.528 Q 194.686 147.528 194.509 147.637 Q 194.332 147.746 194.332 147.938 A 0.423 0.423 0 0 0 194.346 148.047 A 0.335 0.335 0 0 0 194.399 148.158 A 0.45 0.45 0 0 0 194.463 148.228 Q 194.496 148.259 194.539 148.288 A 1.027 1.027 0 0 0 194.612 148.332 A 1.422 1.422 0 0 0 194.699 148.377 Q 194.845 148.445 195.118 148.548 A 14.411 14.411 0 0 0 195.178 148.571 A 4.594 4.594 0 0 1 195.442 148.676 Q 195.698 148.787 195.849 148.9 A 0.836 0.836 0 0 1 195.954 148.992 A 0.726 0.726 0 0 1 196.153 149.451 A 0.964 0.964 0 0 1 196.156 149.525 A 0.963 0.963 0 0 1 196.109 149.833 A 0.777 0.777 0 0 1 195.82 150.22 Q 195.558 150.411 195.131 150.453 A 2.598 2.598 0 0 1 194.877 150.465 A 3.288 3.288 0 0 1 194.504 150.445 Q 194.316 150.423 194.161 150.379 A 1.324 1.324 0 0 1 193.876 150.261 Z M 200.738 150.406 L 200.674 149.973 L 200.647 149.973 Q 200.308 150.465 199.634 150.465 A 1.482 1.482 0 0 1 199.207 150.406 A 1.119 1.119 0 0 1 198.649 150.032 A 1.43 1.43 0 0 1 198.398 149.55 Q 198.297 149.228 198.297 148.801 A 2.901 2.901 0 0 1 198.334 148.318 Q 198.378 148.059 198.473 147.852 A 1.381 1.381 0 0 1 198.65 147.561 A 1.152 1.152 0 0 1 199.471 147.127 A 1.652 1.652 0 0 1 199.634 147.119 A 1.44 1.44 0 0 1 200.066 147.18 A 1.111 1.111 0 0 1 200.641 147.596 L 200.68 147.596 L 200.659 147.363 L 200.647 147.136 L 200.647 145.823 L 201.136 145.823 L 201.136 150.406 L 200.738 150.406 Z M 204.723 148.571 L 204.723 148.88 L 202.5 148.88 Q 202.51 149.268 202.64 149.529 A 0.918 0.918 0 0 0 202.787 149.743 Q 203.059 150.038 203.554 150.038 A 2.582 2.582 0 0 0 204.521 149.846 A 2.959 2.959 0 0 0 204.585 149.82 L 204.585 150.256 A 2.935 2.935 0 0 1 204.318 150.357 A 2.245 2.245 0 0 1 204.095 150.416 A 2.053 2.053 0 0 1 203.891 150.448 Q 203.791 150.458 203.677 150.462 A 3.983 3.983 0 0 1 203.536 150.465 A 1.9 1.9 0 0 1 203.061 150.408 A 1.345 1.345 0 0 1 202.407 150.029 A 1.439 1.439 0 0 1 202.063 149.397 Q 202.003 149.173 201.995 148.906 A 2.792 2.792 0 0 1 201.993 148.818 Q 201.993 148.182 202.249 147.759 A 1.448 1.448 0 0 1 202.378 147.578 A 1.253 1.253 0 0 1 203.291 147.123 A 1.728 1.728 0 0 1 203.41 147.119 A 1.49 1.49 0 0 1 203.829 147.175 A 1.133 1.133 0 0 1 204.37 147.518 A 1.367 1.367 0 0 1 204.68 148.143 A 1.99 1.99 0 0 1 204.723 148.571 Z M 208.367 148.971 L 208.367 149.416 L 207.728 149.416 L 207.728 150.406 L 207.259 150.406 L 207.259 149.416 L 205.165 149.416 L 205.165 148.989 L 207.209 146.076 L 207.728 146.076 L 207.728 148.971 L 208.367 148.971 Z M 197.44 147.178 L 197.44 150.406 L 196.951 150.406 L 196.951 147.178 L 197.44 147.178 Z M 200.647 148.904 L 200.647 148.801 Q 200.647 148.218 200.482 147.918 A 0.733 0.733 0 0 0 200.419 147.821 Q 200.191 147.528 199.69 147.528 A 0.877 0.877 0 0 0 199.396 147.575 A 0.729 0.729 0 0 0 199.032 147.862 A 1.152 1.152 0 0 0 198.884 148.18 Q 198.839 148.329 198.819 148.508 A 2.727 2.727 0 0 0 198.803 148.806 Q 198.803 149.425 199.03 149.74 A 0.737 0.737 0 0 0 199.564 150.048 A 1.095 1.095 0 0 0 199.696 150.055 A 1.452 1.452 0 0 0 199.962 150.033 Q 200.11 150.005 200.223 149.944 A 0.658 0.658 0 0 0 200.422 149.783 A 0.81 0.81 0 0 0 200.555 149.544 Q 200.638 149.317 200.646 148.98 A 3.099 3.099 0 0 0 200.647 148.904 Z M 205.654 148.971 L 207.259 148.971 L 207.259 147.54 A 14.367 14.367 0 0 1 207.266 147.121 Q 207.272 146.902 207.285 146.659 A 23.614 23.614 0 0 1 207.289 146.589 L 207.265 146.589 A 6.072 6.072 0 0 1 207.162 146.787 Q 207.109 146.883 207.059 146.965 A 2.917 2.917 0 0 1 207 147.057 L 205.654 148.971 Z M 202.512 148.482 L 204.199 148.482 A 1.666 1.666 0 0 0 204.179 148.215 Q 204.156 148.071 204.105 147.956 A 0.756 0.756 0 0 0 203.993 147.774 A 0.67 0.67 0 0 0 203.59 147.545 A 1.005 1.005 0 0 0 203.404 147.528 A 0.964 0.964 0 0 0 203.126 147.566 A 0.745 0.745 0 0 0 202.784 147.781 Q 202.575 148.011 202.521 148.399 A 1.847 1.847 0 0 0 202.512 148.482 Z M 196.916 146.213 A 0.542 0.542 0 0 0 196.91 146.303 Q 196.91 146.386 196.93 146.448 A 0.252 0.252 0 0 0 196.992 146.549 A 0.274 0.274 0 0 0 197.091 146.612 A 0.311 0.311 0 0 0 197.198 146.63 Q 197.316 146.63 197.401 146.549 Q 197.487 146.468 197.487 146.303 A 0.559 0.559 0 0 0 197.484 146.25 Q 197.48 146.202 197.466 146.162 A 0.247 0.247 0 0 0 197.401 146.058 A 0.288 0.288 0 0 0 197.198 145.979 A 0.373 0.373 0 0 0 197.173 145.98 A 0.283 0.283 0 0 0 196.992 146.057 A 0.229 0.229 0 0 0 196.941 146.129 Q 196.924 146.166 196.916 146.213 Z" id="side4_labelLayer" stroke="#000000" fill="#000000" style="stroke:#000000;fill:#000000" vector-effect="non-scaling-stroke"/><path d="M 53.209 130.017 L 53.209 127.564 L 67.683 127.564 L 67.683 130.017 L 67.73 130.064 L 82.43 130.064 L 82.477 130.017 L 82.477 127.564 L 96.951 127.564 L 96.951 130.017 L 96.998 130.064 L 112.601 130.064 L 112.639 130.042 L 120.44 116.529 L 120.423 116.465 L 118.299 115.239 L 125.536 102.704 L 127.66 103.93 L 127.724 103.913 L 135.074 91.182 L 135.057 91.118 L 132.933 89.892 L 140.17 77.357 L 142.294 78.583 L 142.358 78.566 L 150.16 65.053 L 150.16 65.01 L 142.358 51.498 L 142.294 51.48 L 140.17 52.707 L 132.933 40.172 L 135.057 38.945 L 135.074 38.881 L 127.724 26.151 L 127.66 26.133 L 125.536 27.36 L 118.299 14.825 L 120.423 13.598 L 120.44 13.534 L 112.639 0.021 L 112.601 0 L 96.998 0 L 96.951 0.047 L 96.951 2.5 L 82.477 2.5 L 82.477 0.047 L 82.43 0 L 67.73 0 L 67.683 0.047 L 67.683 2.5 L 53.209 2.5 L 53.209 0.047 L 53.162 0 L 37.559 0 L 37.521 0.021 L 29.72 13.534 L 29.737 13.598 L 31.861 14.825 L 24.624 27.36 L 22.5 26.133 L 22.436 26.151 L 15.086 38.881 L 15.103 38.945 L 17.227 40.172 L 9.99 52.707 L 7.866 51.48 L 7.802 51.498 L 0 65.01 L 0 65.053 L 7.802 78.566 L 7.866 78.583 L 9.99 77.357 L 17.227 89.892 L 15.103 91.118 L 15.086 91.182 L 22.436 103.913 L 22.5 103.93 L 24.624 102.704 L 31.861 115.239 L 29.737 116.465 L 29.72 116.529 L 37.521 130.042 L 37.559 130.064 L 53.162 130.064 L 53.209 130.017 Z" id="bottom_outsideCutPath" stroke="#FF0000" stroke-width="0.1" style="stroke:#FF0000;stroke-width:0.1" vector-effect="non-scaling-stroke"/><path d="M 117.871 74.786 L 115.763 74.786 L 115.763 65.73 A 6.22 6.22 0 0 0 115.7 64.816 Q 115.631 64.349 115.484 63.972 A 2.548 2.548 0 0 0 115.052 63.234 A 2.219 2.219 0 0 0 114.02 62.567 Q 113.653 62.449 113.205 62.415 A 4.894 4.894 0 0 0 112.842 62.402 A 5.425 5.425 0 0 0 111.737 62.507 Q 111.081 62.644 110.586 62.958 A 2.792 2.792 0 0 0 109.933 63.533 A 3.484 3.484 0 0 0 109.342 64.602 Q 108.993 65.581 108.993 67.013 L 108.993 74.786 L 106.885 74.786 L 106.885 65.73 A 6.22 6.22 0 0 0 106.822 64.816 Q 106.752 64.349 106.605 63.972 A 2.548 2.548 0 0 0 106.173 63.234 Q 105.462 62.402 103.951 62.402 A 5.237 5.237 0 0 0 102.868 62.507 Q 102.199 62.648 101.701 62.981 A 2.764 2.764 0 0 0 101.048 63.59 Q 100.127 64.778 100.127 67.483 L 100.127 74.786 L 98.019 74.786 L 98.019 60.865 L 99.734 60.865 L 100.077 62.771 L 100.178 62.771 Q 100.775 61.755 101.861 61.183 A 5.006 5.006 0 0 1 103.838 60.628 A 6.046 6.046 0 0 1 104.293 60.611 Q 107.558 60.611 108.561 62.974 L 108.663 62.974 A 4.402 4.402 0 0 1 110.321 61.328 A 5.289 5.289 0 0 1 110.466 61.247 A 5.336 5.336 0 0 1 112.424 60.651 A 6.654 6.654 0 0 1 113.159 60.611 Q 114.752 60.611 115.805 61.163 A 3.475 3.475 0 0 1 116.697 61.824 A 3.631 3.631 0 0 1 117.476 63.1 Q 117.686 63.662 117.785 64.362 A 9.671 9.671 0 0 1 117.871 65.705 L 117.871 74.786 Z M 34.397 72.995 L 34.244 72.995 L 33.8 74.786 L 32.288 74.786 L 32.288 55.023 L 34.397 55.023 L 34.397 59.824 Q 34.397 61.385 34.302 62.637 A 26.307 26.307 0 0 1 34.295 62.72 L 34.397 62.72 A 4.794 4.794 0 0 1 37.896 60.688 A 7.201 7.201 0 0 1 38.766 60.637 A 6.444 6.444 0 0 1 40.58 60.879 A 4.824 4.824 0 0 1 43.028 62.51 A 6.213 6.213 0 0 1 44.117 64.609 Q 44.545 65.991 44.545 67.813 A 12.362 12.362 0 0 1 44.382 69.893 Q 44.192 71.002 43.783 71.891 A 5.926 5.926 0 0 1 43.015 73.142 Q 41.484 75.04 38.766 75.04 A 6.395 6.395 0 0 1 37.159 74.844 A 5.565 5.565 0 0 1 36.283 74.539 A 4.67 4.67 0 0 1 34.397 72.995 Z M 70.342 73.046 L 70.342 74.659 A 2.074 2.074 0 0 1 70.096 74.757 Q 69.834 74.844 69.458 74.911 A 7.884 7.884 0 0 1 69.332 74.932 A 9.139 9.139 0 0 1 68.737 75.01 Q 68.456 75.037 68.204 75.04 A 5.406 5.406 0 0 1 68.132 75.04 A 5.507 5.507 0 0 1 66.509 74.822 Q 64.093 74.076 64.093 70.785 L 64.093 62.504 L 62.099 62.504 L 62.099 61.488 L 64.093 60.611 L 64.982 57.639 L 66.202 57.639 L 66.202 60.865 L 70.241 60.865 L 70.241 62.504 L 66.202 62.504 L 66.202 70.696 Q 66.202 71.954 66.799 72.627 A 1.959 1.959 0 0 0 68.003 73.268 A 2.818 2.818 0 0 0 68.437 73.3 A 6.924 6.924 0 0 0 69.451 73.228 A 6.384 6.384 0 0 0 69.517 73.218 Q 70.037 73.135 70.342 73.046 Z M 79.525 73.046 L 79.525 74.659 A 2.074 2.074 0 0 1 79.28 74.757 Q 79.017 74.844 78.642 74.911 A 7.884 7.884 0 0 1 78.516 74.932 A 9.139 9.139 0 0 1 77.92 75.01 Q 77.639 75.037 77.387 75.04 A 5.406 5.406 0 0 1 77.315 75.04 A 5.507 5.507 0 0 1 75.693 74.822 Q 73.276 74.076 73.276 70.785 L 73.276 62.504 L 71.282 62.504 L 71.282 61.488 L 73.276 60.611 L 74.165 57.639 L 75.385 57.639 L 75.385 60.865 L 79.424 60.865 L 79.424 62.504 L 75.385 62.504 L 75.385 70.696 Q 75.385 71.954 75.982 72.627 A 1.959 1.959 0 0 0 77.186 73.268 A 2.818 2.818 0 0 0 77.62 73.3 A 6.924 6.924 0 0 0 78.635 73.228 A 6.384 6.384 0 0 0 78.7 73.218 Q 79.221 73.135 79.525 73.046 Z M 58.53 73.129 A 5.882 5.882 0 0 0 59.23 72.167 Q 60.245 70.431 60.245 67.813 A 12.374 12.374 0 0 0 60.24 67.478 Q 60.157 64.399 58.523 62.555 A 5.52 5.52 0 0 0 55.961 60.902 A 7.085 7.085 0 0 0 53.881 60.611 A 8.189 8.189 0 0 0 52.41 60.738 A 5.577 5.577 0 0 0 49.156 62.51 A 5.825 5.825 0 0 0 48.441 63.502 Q 47.889 64.463 47.646 65.696 A 10.948 10.948 0 0 0 47.454 67.813 A 10.548 10.548 0 0 0 47.587 69.522 A 7.8 7.8 0 0 0 48.242 71.649 A 6.93 6.93 0 0 0 48.395 71.95 A 5.708 5.708 0 0 0 50.477 74.164 A 5.871 5.871 0 0 0 51.825 74.763 A 6.771 6.771 0 0 0 53.792 75.04 A 8.187 8.187 0 0 0 55.222 74.921 A 5.621 5.621 0 0 0 58.53 73.129 Z M 92.608 73.129 A 5.882 5.882 0 0 0 93.308 72.167 Q 94.323 70.431 94.323 67.813 A 12.374 12.374 0 0 0 94.318 67.478 Q 94.235 64.399 92.602 62.555 A 5.52 5.52 0 0 0 90.039 60.902 A 7.085 7.085 0 0 0 87.959 60.611 A 8.189 8.189 0 0 0 86.488 60.738 A 5.577 5.577 0 0 0 83.234 62.51 A 5.825 5.825 0 0 0 82.519 63.502 Q 81.968 64.463 81.724 65.696 A 10.948 10.948 0 0 0 81.532 67.813 A 10.548 10.548 0 0 0 81.665 69.522 A 7.8 7.8 0 0 0 82.32 71.649 A 6.93 6.93 0 0 0 82.473 71.95 A 5.708 5.708 0 0 0 84.555 74.164 A 5.871 5.871 0 0 0 85.903 74.763 A 6.771 6.771 0 0 0 87.87 75.04 A 8.187 8.187 0 0 0 89.3 74.921 A 5.621 5.621 0 0 0 92.608 73.129 Z M 50.088 70.74 A 4.423 4.423 0 0 0 50.706 71.878 A 3.456 3.456 0 0 0 52.956 73.203 A 5.237 5.237 0 0 0 53.843 73.275 A 4.897 4.897 0 0 0 55.135 73.114 A 3.408 3.408 0 0 0 56.987 71.884 A 4.526 4.526 0 0 0 57.691 70.511 Q 57.899 69.877 57.989 69.103 A 11.106 11.106 0 0 0 58.06 67.813 Q 58.06 65.159 56.987 63.78 A 3.468 3.468 0 0 0 54.83 62.494 A 5.318 5.318 0 0 0 53.818 62.402 A 5.018 5.018 0 0 0 52.568 62.549 A 3.358 3.358 0 0 0 50.693 63.761 Q 49.934 64.74 49.721 66.409 A 11.142 11.142 0 0 0 49.639 67.813 Q 49.639 69.544 50.088 70.74 Z M 84.166 70.74 A 4.423 4.423 0 0 0 84.784 71.878 A 3.456 3.456 0 0 0 87.035 73.203 A 5.237 5.237 0 0 0 87.921 73.275 A 4.897 4.897 0 0 0 89.213 73.114 A 3.408 3.408 0 0 0 91.065 71.884 A 4.526 4.526 0 0 0 91.77 70.511 Q 91.977 69.877 92.068 69.103 A 11.106 11.106 0 0 0 92.138 67.813 Q 92.138 65.159 91.065 63.78 A 3.468 3.468 0 0 0 88.908 62.494 A 5.318 5.318 0 0 0 87.896 62.402 A 5.018 5.018 0 0 0 86.647 62.549 A 3.358 3.358 0 0 0 84.771 63.761 Q 84.012 64.74 83.8 66.409 A 11.142 11.142 0 0 0 83.717 67.813 Q 83.717 69.544 84.166 70.74 Z M 38.461 62.402 A 5.925 5.925 0 0 0 37.314 62.506 Q 36.027 62.76 35.35 63.641 Q 34.397 64.879 34.397 67.813 A 13.941 13.941 0 0 0 34.466 69.254 Q 34.618 70.708 35.103 71.593 A 3.18 3.18 0 0 0 35.375 72.011 A 3.059 3.059 0 0 0 36.927 73.058 Q 37.445 73.221 38.078 73.261 A 6.779 6.779 0 0 0 38.512 73.275 A 4.203 4.203 0 0 0 39.706 73.115 A 3.032 3.032 0 0 0 41.408 71.859 A 4.84 4.84 0 0 0 42.007 70.563 Q 42.361 69.405 42.361 67.788 Q 42.361 65.211 41.505 63.879 A 3.498 3.498 0 0 0 41.408 63.736 A 3.075 3.075 0 0 0 39.451 62.497 A 4.876 4.876 0 0 0 38.461 62.402 Z" id="bottom_labelLayer" stroke="#000000" fill="#000000" style="stroke:#000000;fill:#000000" vector-effect="non-scaling-stroke"/></g></svg>